<svg width="24" height="25" viewBox="0 0 24 25" fill="none" xmlns="http://www.w3.org/2000/svg">
<path d="M3.22241 6.20312H5.17891H20.8309" stroke="black" stroke-width="2" stroke-linecap="round" stroke-linejoin="round"/>
<path d="M8.11371 6.20312V4.20312C8.11371 3.67269 8.31984 3.16398 8.68675 2.78891C9.05367 2.41384 9.55131 2.20313 10.0702 2.20312H13.9832C14.5021 2.20313 14.9998 2.41384 15.3667 2.78891C15.7336 3.16398 15.9397 3.67269 15.9397 4.20312V6.20312M18.8745 6.20312V20.2031C18.8745 20.7336 18.6683 21.2423 18.3014 21.6173C17.9345 21.9924 17.4369 22.2031 16.918 22.2031H7.13546C6.61656 22.2031 6.11892 21.9924 5.752 21.6173C5.38509 21.2423 5.17896 20.7336 5.17896 20.2031V6.20312H18.8745Z" stroke="black" stroke-width="2" stroke-linecap="round" stroke-linejoin="round"/>
<path d="M10.0701 11.2031V17.2031" stroke="black" stroke-width="2" stroke-linecap="round" stroke-linejoin="round"/>
<path d="M13.9832 11.2031V17.2031" stroke="black" stroke-width="2" stroke-linecap="round" stroke-linejoin="round"/>
</svg>
